<svg width="214" height="214" fill="none" xmlns="http://www.w3.org/2000/svg"><rect x="11" y="11" width="192" height="192" rx="49" stroke="url('#paint0_linear_0_1')" stroke-width="22"/><path d="M156.155 82.46c3.813 0 7.02 1.387 9.62 4.16 2.773 2.6 4.16 5.893 4.16 9.88 0 2.253-.52 4.68-1.56 7.28-2.774 6.413-6.674 11.787-11.7 16.12-5.027 4.333-10.574 6.5-16.64 6.5-4.854 0-9.014-1.733-12.48-5.2-3.294-3.467-4.94-8.147-4.94-14.04 0-3.293.173-6.847.52-10.66.346-2.773.52-4.68.52-5.72 0-1.387-.347-2.427-1.04-3.12-.52-.693-1.214-1.04-2.08-1.04-2.427 0-5.72 2.947-9.88 8.84-4.16 5.72-8.32 13.347-12.48 22.88s-7.54 19.587-10.14 30.16c-1.907 8.32-4.074 13.867-6.5 16.64-2.427 2.773-6.414 4.16-11.96 4.16-6.587 0-11.267-3.467-14.04-10.4-2.6-6.933-3.9-18.027-3.9-33.28 0-22.533 3.206-43.94 9.62-64.22 1.56-5.027 4.073-8.667 7.54-10.92 3.64-2.427 8.666-3.64 15.08-3.64 3.466 0 5.893.433 7.28 1.3 1.386.867 2.08 2.513 2.08 4.94 0 2.773-1.3 9.013-3.9 18.72-1.734 6.933-3.12 13-4.16 18.2-1.04 5.2-1.907 11.613-2.6 19.24 5.72-14.907 12.133-27.04 19.24-36.4 7.106-9.36 14.04-16.033 20.8-20.02 6.76-3.987 12.913-5.98 18.46-5.98 5.026 0 8.84 1.473 11.44 4.42 2.773 2.773 4.16 6.933 4.16 12.48 0 3.293-.954 9.533-2.86 18.72h2.34Z" fill="url('#paint1_linear_0_1')"/><defs><linearGradient id="paint0_linear_0_1" x1="107" y1="0" x2="107" y2="214" gradientUnits="userSpaceOnUse"><stop stop-color="#00989B"/><stop offset=".941" stop-color="#005E78"/></linearGradient><linearGradient id="paint1_linear_0_1" x1="103" y1="-61" x2="103" y2="175" gradientUnits="userSpaceOnUse"><stop stop-color="#00989B"/><stop offset=".946" stop-color="#005E78"/></linearGradient></defs></svg>